<?xml version="1.0" encoding="utf-8"?>
<!-- Generator: Adobe Illustrator 26.0.1, SVG Export Plug-In . SVG Version: 6.00 Build 0)  -->
<svg version="1.1" id="Lag_1" xmlns="http://www.w3.org/2000/svg" xmlns:xlink="http://www.w3.org/1999/xlink" x="0px" y="0px"
	 viewBox="0 0 460 200" style="enable-background:new 0 0 460 200;" xml:space="preserve">
<style type="text/css">
	.st0{fill:#EE7D12;}
	.st1{fill:#1D1D1B;}
	.st2{fill:none;}
	.st3{font-family:'MyriadPro-Regular';}
	.st4{font-size:55px;}
</style>
<g>
	<path class="st0" d="M439.21,119.88c-28.7-11.55-57.84-23.34-82.11-42.52c-7.55-5.96-14.58-12.6-22.49-18.08
		c-12.14-8.41-26.04-13.85-39.8-19.23C260.23,26.55,225.04,12.9,188.05,9.69c-8.56-0.74-17.26-0.91-25.68,0.81
		c-9.21,1.89-17.79,5.97-26.28,10.03c-20.76,9.92-41.52,19.83-62.27,29.75c-4.58,2.19-9.17,4.38-13.54,6.98
		c-4.75,2.84-9.21,6.14-13.63,9.47c-8.3,6.26-16.54,12.65-25.59,17.77c-1.9,1.07-3.9,2.15-5.17,3.92
		c-3.13,4.37-0.25,10.75,4.07,13.96c4.32,3.21,9.76,4.54,14.31,7.41c5.56,3.51,9.43,9.06,13.81,13.96
		c8.31,9.28,18.76,16.4,29.55,22.62c16.73,9.65,34.51,17.35,52.58,24.17c49.33,18.61,104.77,30.61,154.24,12.39
		c12.24-4.51,23.75-10.75,35.69-16.02c41.31-18.24,88.02-24.97,125.28-50.49"/>
	<g>
		<path class="st1" d="M439.88,117.47c-28.51-11.47-57.71-23.21-81.92-42.6c-6.15-4.93-12-10.23-18.29-14.99
			c-6.31-4.78-13.14-8.75-20.27-12.18c-14.32-6.89-29.44-12.31-44.3-17.91c-30.34-11.45-62.24-22.06-94.95-23.07
			c-8.28-0.26-16.56,0.51-24.5,2.95c-7.61,2.34-14.81,5.85-21.97,9.27c-15.5,7.41-31.01,14.81-46.51,22.22
			c-7.64,3.65-15.38,7.14-22.89,11.05c-7.2,3.75-13.7,8.47-20.16,13.35c-6.48,4.9-12.96,9.83-19.85,14.14
			c-5.51,3.44-12.97,6.33-12.1,14.16c0.76,6.8,6.21,11.11,12.01,13.81c3.18,1.48,6.5,2.72,9.43,4.68c3.03,2.03,5.52,4.8,7.88,7.54
			c4.9,5.7,9.82,11.12,15.72,15.82c5.83,4.65,12.08,8.72,18.52,12.46c14.09,8.19,28.95,14.96,44.07,21.01
			c14.81,5.92,29.88,11.23,45.25,15.47c29.81,8.23,61.24,12.58,92.02,7.88c15.84-2.42,30.66-7.68,45.13-14.45
			c7.39-3.46,14.7-7.1,22.21-10.29c6.86-2.91,13.85-5.51,20.88-7.96c27.81-9.68,56.65-16.95,83.01-30.38
			c6.35-3.23,12.49-6.83,18.38-10.84c2.64-1.8,0.15-6.14-2.52-4.32c-23.91,16.29-51.69,24.94-78.98,33.7
			c-13.81,4.43-27.62,8.93-41.01,14.52c-14.54,6.07-28.34,13.94-43.28,19.07c-29,9.95-60.34,9.57-90.19,3.94
			c-30.5-5.75-60.45-16.3-88.58-29.31c-13.93-6.44-27.91-13.66-40.13-23.04c-5.82-4.46-10.88-9.6-15.6-15.19
			c-4.59-5.43-9.29-9.95-15.85-12.91c-5.25-2.37-13.46-5.28-13.47-12.35c0-3.34,3.06-4.8,5.59-6.24c3.47-1.98,6.83-4.15,10.11-6.42
			c6.46-4.46,12.61-9.34,18.93-13.99c6.36-4.67,13.01-8.62,20.11-12.06c15.14-7.33,30.36-14.51,45.54-21.76
			c7.49-3.58,14.97-7.17,22.47-10.73c6.99-3.32,14.1-6.5,21.67-8.26c8.15-1.89,16.59-1.84,24.89-1.2c7.96,0.62,15.86,1.75,23.7,3.28
			c15.71,3.06,31.08,7.65,46.18,12.9c14.95,5.19,29.71,10.95,44.41,16.8c14.54,5.78,28.36,12.45,40.55,22.39
			c5.88,4.8,11.56,9.85,17.63,14.42c6.05,4.56,12.41,8.71,18.96,12.53c12.91,7.53,26.52,13.75,40.27,19.55
			c6.79,2.86,13.63,5.62,20.47,8.37C441.53,123.5,442.83,118.66,439.88,117.47L439.88,117.47z"/>
	</g>
</g>
<rect x="85.03" y="74.03" class="st2" width="250.72" height="82.61"/>
<text transform="matrix(1 0 0 1 92.7476 113.0781)" class="st3 st4">Serviceses</text>
<g>
	<g>
		<path d="M12.56,96.36c18.04-0.8,36.15,0.47,53.88,3.89c5.04,0.97,10.04,2.12,15,3.42c3.12,0.82,4.44-4,1.33-4.82
			c-17.81-4.67-36.18-7.26-54.58-7.67c-5.21-0.12-10.42-0.05-15.62,0.18C9.36,91.5,9.34,96.5,12.56,96.36L12.56,96.36z"/>
	</g>
</g>
<g>
	<g>
		<path d="M336.74,108.82c22.87,8.55,46.8,14.11,71.09,16.6c6.87,0.71,13.77,1.15,20.68,1.36c3.22,0.1,3.22-4.9,0-5
			c-24.04-0.71-47.93-4.51-71.01-11.3c-6.55-1.93-13.03-4.1-19.43-6.49c-1.26-0.47-2.74,0.53-3.08,1.75
			C334.61,107.15,335.47,108.35,336.74,108.82L336.74,108.82z"/>
	</g>
</g>
<g>
	<g>
		<path d="M49.17,91.73c0.92-6.02,4.38-11.01,8.2-15.66c4.09-4.97,8.67-9.71,11.75-15.42c1.77-3.27,2.89-6.73,3.24-10.44
			c0.13-1.35-1.24-2.5-2.5-2.5c-1.46,0-2.37,1.15-2.5,2.5c-0.53,5.65-3.96,10.75-7.56,15.2c-4.01,4.96-8.53,9.6-11.77,15.13
			c-1.78,3.04-3.15,6.36-3.68,9.85c-0.2,1.33,0.34,2.69,1.75,3.08C47.28,93.8,48.97,93.07,49.17,91.73L49.17,91.73z"/>
	</g>
</g>
<g>
	<g>
		<path d="M73.44,101.64c3.16-16.07,8.3-31.75,15.39-46.52c2.02-4.22,4.2-8.36,6.52-12.42c1.6-2.8-2.72-5.32-4.32-2.52
			C82.74,54.7,76.26,70.29,71.86,86.43c-1.25,4.59-2.33,9.22-3.24,13.88c-0.26,1.32,0.38,2.7,1.75,3.08
			C71.59,103.72,73.18,102.97,73.44,101.64L73.44,101.64z"/>
	</g>
</g>
<g>
	<g>
		<path d="M122.21,67.81c1.47-12.56,2.95-25.12,4.42-37.67c0.16-1.34-1.26-2.5-2.5-2.5c-1.48,0-2.34,1.15-2.5,2.5
			c-1.47,12.56-2.95,25.12-4.42,37.67c-0.16,1.34,1.26,2.5,2.5,2.5C121.2,70.31,122.06,69.16,122.21,67.81L122.21,67.81z"/>
	</g>
</g>
<g>
	<g>
		<path d="M155.53,73.61c12-15.84,22.99-32.45,32.87-49.69c2.78-4.85,5.47-9.75,8.07-14.7c1.5-2.85-2.82-5.38-4.32-2.52
			c-9.25,17.59-19.62,34.59-31.05,50.85c-3.21,4.57-6.51,9.09-9.89,13.54c-0.82,1.08-0.17,2.8,0.9,3.42
			C153.4,75.26,154.72,74.69,155.53,73.61L155.53,73.61z"/>
	</g>
</g>
<g>
	<g>
		<path d="M223.41,66.44c13.55-8.21,27.44-16.69,38.09-28.61c3.03-3.39,5.78-7.05,8.13-10.95c1.67-2.76-2.65-5.28-4.32-2.52
			c-7.96,13.17-20.43,22.63-33.19,30.81c-3.71,2.38-7.47,4.67-11.24,6.95C218.14,63.79,220.65,68.12,223.41,66.44L223.41,66.44z"/>
	</g>
</g>
<g>
	<g>
		<path d="M294.55,73.52c5.78-7.74,11.56-15.49,17.34-23.23c0.81-1.08,0.18-2.79-0.9-3.42c-1.28-0.75-2.61-0.19-3.42,0.9
			c-5.78,7.74-11.56,15.49-17.34,23.23c-0.81,1.08-0.18,2.79,0.9,3.42C292.41,75.17,293.74,74.61,294.55,73.52L294.55,73.52z"/>
	</g>
</g>
<g>
	<g>
		<path d="M301.47,129.65c10.34,10.43,20.69,20.85,31.03,31.28c2.27,2.29,5.81-1.25,3.54-3.54c-10.34-10.43-20.69-20.85-31.03-31.28
			C302.74,123.83,299.2,127.36,301.47,129.65L301.47,129.65z"/>
	</g>
</g>
<g>
	<g>
		<path d="M262.01,130.8c10.53,15.38,21.05,30.75,31.58,46.13c0.76,1.11,2.2,1.61,3.42,0.9c1.1-0.65,1.66-2.3,0.9-3.42
			c-10.53-15.38-21.05-30.75-31.58-46.13c-0.76-1.11-2.2-1.61-3.42-0.9C261.81,128.03,261.25,129.68,262.01,130.8L262.01,130.8z"/>
	</g>
</g>
<g>
	<g>
		<path d="M222.99,136.77c6.56,14.8,14.69,28.89,24.26,41.96c2.76,3.77,5.63,7.45,8.61,11.05c0.86,1.04,2.64,0.89,3.54,0
			c1.03-1.03,0.86-2.49,0-3.54c-10.13-12.25-18.93-25.61-26.22-39.74c-2.08-4.02-4.03-8.11-5.87-12.25
			c-0.55-1.23-2.35-1.52-3.42-0.9C222.62,134.09,222.44,135.53,222.99,136.77L222.99,136.77z"/>
	</g>
</g>
<g>
	<g>
		<path d="M175.22,133.11c10.24,16.59,18.62,34.28,24.92,52.73c0.44,1.28,1.72,2.12,3.08,1.75c1.24-0.34,2.18-1.79,1.75-3.08
			c-5-14.65-11.26-28.89-18.73-42.45c-2.14-3.88-4.37-7.7-6.7-11.47C177.85,127.85,173.52,130.36,175.22,133.11L175.22,133.11z"/>
	</g>
</g>
<g>
	<g>
		<path d="M126.13,130.99c10.05,11.72,18.53,24.76,25.2,38.68c1.87,3.89,3.58,7.86,5.15,11.88c0.49,1.26,1.68,2.13,3.08,1.75
			c1.2-0.33,2.24-1.81,1.75-3.08c-5.82-14.93-13.52-29.08-23.04-41.98c-2.73-3.7-5.6-7.3-8.6-10.79c-0.88-1.03-2.63-0.9-3.54,0
			C125.11,128.47,125.25,129.96,126.13,130.99L126.13,130.99z"/>
	</g>
</g>
<g>
	<g>
		<path d="M98.34,127.34c8.77,14.45,17.54,28.89,26.31,43.34c1.67,2.75,5.99,0.24,4.32-2.52c-8.77-14.45-17.54-28.89-26.31-43.34
			C100.99,122.07,96.67,124.58,98.34,127.34L98.34,127.34z"/>
	</g>
</g>
<g>
	<g>
		<path d="M79.02,101.59c5.98,18.93,12.3,37.75,18.96,56.45c0.45,1.27,1.71,2.12,3.08,1.75c1.23-0.34,2.2-1.8,1.75-3.08
			c-6.66-18.7-12.98-37.52-18.96-56.45C82.87,97.2,78.05,98.51,79.02,101.59L79.02,101.59z"/>
	</g>
</g>
<g>
	<g>
		<path d="M58.82,100.54c9.09,12.28,13.84,27.36,13.31,42.64c-0.11,3.22,4.89,3.21,5,0c0.56-16.06-4.42-32.24-13.99-45.16
			c-0.8-1.08-2.17-1.63-3.42-0.9C58.64,97.74,58.01,99.45,58.82,100.54L58.82,100.54z"/>
	</g>
</g>
</svg>
