<?xml version="1.0" encoding="utf-8"?>
<!-- Generator: Adobe Illustrator 26.0.1, SVG Export Plug-In . SVG Version: 6.00 Build 0)  -->
<svg version="1.1" id="Lag_1" xmlns="http://www.w3.org/2000/svg" xmlns:xlink="http://www.w3.org/1999/xlink" x="0px" y="0px"
	 viewBox="0 0 453 202" style="enable-background:new 0 0 453 202;" xml:space="preserve">
<style type="text/css">
	.st0{fill:#EE7D12;}
	.st1{fill:#1D1D1B;}
	.st2{fill:none;}
	.st3{font-family:'MyriadPro-Regular';}
	.st4{font-size:39px;}
</style>
<g>
	<path class="st0" d="M18.26,103.16c29.6,9,59.65,18.21,85.5,35.2c8.04,5.28,15.62,11.29,23.98,16.05
		c12.83,7.32,27.15,11.53,41.32,15.68c35.64,10.44,71.88,20.97,109.01,20.95c8.6-0.01,17.28-0.6,25.51-3.05
		c9.01-2.68,17.21-7.5,25.3-12.28c19.81-11.69,39.63-23.37,59.44-35.06c4.38-2.58,8.76-5.17,12.88-8.14
		c4.49-3.24,8.64-6.92,12.75-10.62c7.72-6.95,15.38-14.04,23.94-19.93c1.8-1.24,3.69-2.48,4.8-4.36c2.74-4.63-0.69-10.73-5.27-13.55
		c-4.58-2.82-10.11-3.67-14.9-6.13c-5.84-3.01-10.18-8.21-14.98-12.7c-9.09-8.52-20.11-14.7-31.41-19.96
		c-17.51-8.15-35.89-14.27-54.49-19.49c-50.76-14.24-107.04-21.37-154.74,1.1c-11.8,5.56-22.73,12.78-34.15,19.07
		C93.22,67.7,47.27,78.49,12.38,107.15"/>
	<g>
		<path class="st1" d="M17.6,105.57c29.8,9.06,60.12,18.34,86.24,35.84c6.88,4.61,13.46,9.67,20.57,13.95c6.64,4,13.74,7.15,21,9.83
			c15.39,5.69,31.44,9.91,47.24,14.29c16.18,4.48,32.53,8.5,49.13,11.07c16.24,2.52,33.19,4.17,49.59,2.35
			c8.03-0.89,15.63-2.99,22.96-6.38c7.39-3.42,14.33-7.75,21.33-11.88c14.92-8.8,29.84-17.6,44.77-26.4
			c7.18-4.24,14.58-8.26,21.4-13.08c6.55-4.64,12.41-10.14,18.36-15.5c6.08-5.47,12.25-10.86,18.98-15.52
			c2.74-1.9,5.46-3.87,6.55-7.17c0.95-2.87,0.32-5.97-1-8.6c-3.3-6.57-10.36-8.58-16.77-10.86c-7.3-2.6-12.15-7.81-17.59-13.06
			c-11.08-10.69-24.89-17.9-38.89-24c-15.17-6.61-30.88-11.86-46.78-16.4c-14.79-4.22-29.78-7.8-44.97-10.3
			c-29.7-4.88-60.62-5.81-89.9,2.11c-15.12,4.09-28.93,10.85-42.4,18.74c-13.19,7.72-26.43,14.99-40.4,21.24
			C80.44,67.69,52.65,77.37,27.9,92.96c-6.01,3.79-11.78,7.93-17.28,12.43c-2.49,2.04,1.06,5.56,3.54,3.54
			c22.11-18.08,48.84-29.04,74.93-40c13.14-5.52,26.28-11.08,38.95-17.62c13.83-7.14,26.71-16.03,40.84-22.59
			c26.85-12.47,57.02-15.3,86.25-13.01c30.38,2.38,60.49,9.93,89.3,19.66c14.91,5.04,29.78,10.88,43.47,18.72
			c6.4,3.66,12.52,7.86,17.91,12.91c5.1,4.77,9.73,10.33,16.14,13.42c5.93,2.86,14.36,3.52,18.03,9.67c1.5,2.51,1.77,5.36-0.45,7.53
			c-2.58,2.53-6,4.38-8.86,6.6c-12.53,9.71-23.21,21.72-36.71,30.16c-14.18,8.86-28.8,17.07-43.2,25.56
			c-7.22,4.26-14.43,8.51-21.65,12.77c-6.81,4.01-13.63,8.2-21,11.1c-15,5.91-31.89,5.32-47.69,4c-16.35-1.36-32.49-4.51-48.4-8.41
			c-15.83-3.88-31.49-8.49-47.12-13.12c-14.99-4.44-29.56-9.55-42.69-18.22c-6.65-4.4-13-9.24-19.74-13.5
			c-6.36-4.01-12.98-7.59-19.76-10.82c-13.71-6.54-28.03-11.7-42.47-16.36c-7.07-2.28-14.18-4.45-21.29-6.61
			C15.84,99.81,14.52,104.63,17.6,105.57L17.6,105.57z"/>
	</g>
</g>
<rect x="104" y="80.67" class="st2" width="275.4" height="68"/>
<text transform="matrix(1 0 0 1 104 108.356)" class="st3 st4">Om Time-service</text>
<g>
	<g>
		<path d="M26.59,104.97c16.27-4.69,32.97-7.87,49.83-9.4c4.85-0.44,9.71-0.74,14.57-0.92c3.21-0.12,3.22-5.12,0-5
			c-17.28,0.63-34.52,2.89-51.37,6.77c-4.82,1.11-9.61,2.35-14.36,3.72C22.17,101.04,23.49,105.87,26.59,104.97L26.59,104.97z"/>
	</g>
</g>
<g>
	<g>
		<path d="M394.47,106.33c20.09-3.04,40.02-7.12,59.69-12.23c3.11-0.81,1.79-5.63-1.33-4.82c-19.67,5.11-39.6,9.19-59.69,12.23
			c-1.34,0.2-2.07,1.88-1.75,3.08C391.79,106.01,393.13,106.53,394.47,106.33L394.47,106.33z"/>
	</g>
</g>
<g>
	<g>
		<path d="M83.16,94.23c-1.94-7.84-6.21-15.06-12.17-20.51c-1-0.91-2.55-0.98-3.54,0c-0.92,0.92-1,2.62,0,3.54
			c5.38,4.92,9.14,11.25,10.88,18.31C79.11,98.69,83.93,97.36,83.16,94.23L83.16,94.23z"/>
	</g>
</g>
<g>
	<g>
		<path d="M83.44,91c0.06,9.51-2.75,18.77-8.02,26.68c-1.79,2.68,2.54,5.19,4.32,2.52c5.74-8.6,8.77-18.87,8.71-29.2
			C88.42,87.78,83.42,87.77,83.44,91L83.44,91z"/>
	</g>
</g>
<g>
	<g>
		<path d="M139.39,116.35c-5.11,11.24-11.94,21.61-20.32,30.68c-2.18,2.36,1.35,5.91,3.54,3.54c8.66-9.37,15.82-20.08,21.1-31.7
			c0.56-1.23,0.35-2.69-0.9-3.42C141.74,114.83,139.95,115.12,139.39,116.35L139.39,116.35z"/>
	</g>
</g>
<g>
	<g>
		<path d="M172.09,123.44c-7.06,11.12-15.13,21.56-24.12,31.19c-2.19,2.35,1.33,5.89,3.54,3.54c9.27-9.94,17.62-20.73,24.9-32.2
			C178.13,123.24,173.81,120.73,172.09,123.44L172.09,123.44z"/>
	</g>
</g>
<g>
	<g>
		<path d="M200.84,122.42c-5.15,15.17-12.66,29.46-22.14,42.37c-0.8,1.09-0.18,2.79,0.9,3.42c1.27,0.74,2.62,0.19,3.42-0.9
			c9.74-13.26,17.36-27.99,22.64-43.57C206.7,120.7,201.87,119.39,200.84,122.42L200.84,122.42z"/>
	</g>
</g>
<g>
	<g>
		<path d="M237.19,126.08c-4.64,13.44-11.63,26.14-20.58,37.19c-2.58,3.18-5.31,6.23-8.18,9.14c-2.26,2.29,1.27,5.83,3.54,3.54
			c10.44-10.6,19.06-23.02,25.25-36.55c1.79-3.92,3.4-7.92,4.8-11.99c0.44-1.28-0.5-2.73-1.75-3.08
			C238.89,123.96,237.63,124.8,237.19,126.08L237.19,126.08z"/>
	</g>
</g>
<g>
	<g>
		<path d="M270.2,126.88c-8.66,15.89-17.35,31.82-27.57,46.78c-2.84,4.16-5.8,8.25-8.91,12.22c-0.83,1.06-1.04,2.5,0,3.54
			c0.87,0.87,2.7,1.07,3.54,0c11.36-14.5,20.83-30.29,29.77-46.37c2.52-4.53,5-9.09,7.49-13.64
			C276.06,126.58,271.75,124.05,270.2,126.88L270.2,126.88z"/>
	</g>
</g>
<g>
	<g>
		<path d="M309.25,123.27c-8.87,18.62-19.9,36.24-32.9,52.26c-3.7,4.56-7.56,8.99-11.55,13.3c-2.19,2.36,1.34,5.9,3.54,3.54
			c14.27-15.38,26.75-32.44,37.03-50.74c2.91-5.18,5.65-10.47,8.2-15.84c0.58-1.22,0.34-2.7-0.9-3.42
			C311.58,121.73,309.83,122.04,309.25,123.27L309.25,123.27z"/>
	</g>
</g>
<g>
	<g>
		<path d="M351.83,123.84c-10.16,11.73-19.08,24.54-26.45,38.2c-2.07,3.84-4.02,7.74-5.85,11.71c-0.57,1.22-0.35,2.69,0.9,3.42
			c1.08,0.63,2.85,0.33,3.42-0.9c6.36-13.76,14.2-26.83,23.38-38.9c2.6-3.42,5.33-6.75,8.14-9.99c0.88-1.02,1-2.53,0-3.54
			C354.46,122.93,352.72,122.81,351.83,123.84L351.83,123.84z"/>
	</g>
</g>
<g>
	<g>
		<path d="M400.33,102.79c-9.55,12.21-19.16,24.63-25.07,39.1c-1.66,4.05-2.96,8.24-3.86,12.52c-0.28,1.32,0.39,2.7,1.75,3.08
			c1.24,0.34,2.8-0.42,3.08-1.75c3.06-14.66,11.12-27.49,19.93-39.37c2.52-3.39,5.11-6.73,7.71-10.05c0.83-1.06,1.04-2.5,0-3.54
			C403,101.93,401.16,101.72,400.33,102.79L400.33,102.79z"/>
	</g>
</g>
<g>
	<g>
		<path d="M402.1,98.15c-4-14.88-10.42-29.13-18.97-41.95c-2.48-3.71-5.14-7.3-7.94-10.78c-0.85-1.05-2.65-0.88-3.54,0
			c-1.04,1.04-0.85,2.48,0,3.54c9.25,11.48,16.66,24.54,21.76,38.37c1.47,3.99,2.75,8.04,3.86,12.15
			C398.12,102.58,402.94,101.27,402.1,98.15L402.1,98.15z"/>
	</g>
</g>
<g>
	<g>
		<path d="M359.58,80.02c-4.82-5.25-7.16-12.09-8.94-18.86c-1.89-7.15-3.2-14.49-5.96-21.38c-1.61-4-3.64-7.7-6.38-11.04
			c-0.86-1.04-2.65-0.89-3.54,0c-1.03,1.03-0.86,2.49,0,3.54c4.53,5.53,6.65,12.55,8.38,19.36c1.84,7.24,3.28,14.61,6.25,21.5
			c1.65,3.82,3.84,7.35,6.65,10.42C358.22,85.94,361.75,82.39,359.58,80.02L359.58,80.02z"/>
	</g>
</g>
<g>
	<g>
		<path d="M322.15,78.16c-4.73-19.72-10.51-39.18-17.29-58.29c-0.45-1.27-1.71-2.12-3.08-1.75c-1.23,0.34-2.2,1.8-1.75,3.08
			c6.79,19.11,12.56,38.57,17.29,58.29C318.08,82.61,322.91,81.29,322.15,78.16L322.15,78.16z"/>
	</g>
</g>
<g>
	<g>
		<path d="M277.56,74.17c-6.77-14.66-12.4-29.84-16.85-45.37c-1.27-4.44-2.45-8.91-3.53-13.4c-0.75-3.13-5.58-1.8-4.82,1.33
			c3.85,15.99,8.92,31.67,15.18,46.88c1.81,4.4,3.71,8.76,5.71,13.08c0.57,1.23,2.34,1.53,3.42,0.9
			C277.92,76.86,278.13,75.4,277.56,74.17L277.56,74.17z"/>
	</g>
</g>
<g>
	<g>
		<path d="M246.03,78.01c-9.09-15.58-16.68-32.01-22.57-49.07c-1.67-4.84-3.21-9.72-4.61-14.64c-0.88-3.09-5.71-1.78-4.82,1.33
			c5.05,17.68,11.83,34.87,20.21,51.24c2.37,4.62,4.86,9.18,7.48,13.66C243.33,83.31,247.65,80.8,246.03,78.01L246.03,78.01z"/>
	</g>
</g>
<g>
	<g>
		<path d="M205.6,75.52c-8.75-17.36-15.55-35.64-20.32-54.49c-0.79-3.12-5.61-1.8-4.82,1.33c4.87,19.25,11.88,37.95,20.82,55.68
			C202.73,80.92,207.05,78.39,205.6,75.52L205.6,75.52z"/>
	</g>
</g>
<g>
	<g>
		<path d="M163,74.92c-7.64-9.27-13.53-19.96-17.33-31.34c-1.01-3.04-5.85-1.73-4.82,1.33c4.09,12.25,10.41,23.58,18.62,33.55
			c0.86,1.04,2.65,0.89,3.54,0C164.03,77.43,163.86,75.97,163,74.92L163,74.92z"/>
	</g>
</g>
<g>
	<g>
		<path d="M122.33,68.48c-2.21-4.45-4.43-8.9-6.64-13.35c-0.58-1.17-2.34-1.59-3.42-0.9c-1.2,0.77-1.52,2.17-0.9,3.42
			c2.21,4.45,4.43,8.9,6.64,13.35c0.58,1.17,2.34,1.59,3.42,0.9C122.64,71.13,122.96,69.74,122.33,68.48L122.33,68.48z"/>
	</g>
</g>
</svg>
