<?xml version="1.0" encoding="utf-8"?>
<!-- Generator: Adobe Illustrator 26.0.1, SVG Export Plug-In . SVG Version: 6.00 Build 0)  -->
<svg version="1.1" id="Lag_1" xmlns="http://www.w3.org/2000/svg" xmlns:xlink="http://www.w3.org/1999/xlink" x="0px" y="0px"
	 viewBox="0 0 447 208" style="enable-background:new 0 0 447 208;" xml:space="preserve">
<style type="text/css">
	.st0{fill:#EE7D12;}
	.st1{fill:#1D1D1B;}
	.st2{fill:none;}
	.st3{font-family:'ArialNarrow-Bold';}
	.st4{font-size:50px;}
</style>
<g>
	<path class="st0" d="M433.04,117.74c-28.7-11.55-57.84-23.34-82.11-42.52c-7.55-5.96-14.58-12.6-22.49-18.08
		c-12.14-8.41-26.04-13.85-39.8-19.23C254.05,24.4,218.87,10.75,181.87,7.54c-8.56-0.74-17.26-0.91-25.68,0.81
		c-9.21,1.89-17.79,5.97-26.28,10.03C109.16,28.3,88.4,38.22,67.64,48.13c-4.58,2.19-9.17,4.38-13.54,6.98
		c-4.75,2.84-9.21,6.14-13.63,9.47c-8.3,6.26-16.54,12.65-25.59,17.77c-1.9,1.07-3.9,2.15-5.17,3.92
		c-3.13,4.37-0.25,10.75,4.07,13.96s9.76,4.54,14.31,7.41c5.56,3.51,9.43,9.06,13.81,13.96c8.31,9.28,18.76,16.4,29.55,22.62
		c16.73,9.65,34.51,17.35,52.58,24.17C173.36,187,228.8,199,278.27,180.78c12.24-4.51,23.75-10.75,35.69-16.02
		c41.31-18.24,88.02-24.97,125.28-50.49"/>
	<g>
		<path class="st1" d="M433.71,115.33c-28.51-11.47-57.71-23.21-81.92-42.6c-6.15-4.93-12-10.23-18.29-14.99
			c-6.31-4.78-13.14-8.75-20.27-12.18c-14.32-6.89-29.44-12.31-44.3-17.91C238.59,16.2,206.69,5.59,173.98,4.58
			c-8.28-0.26-16.56,0.51-24.5,2.95c-7.61,2.34-14.81,5.85-21.97,9.27C112.01,24.21,96.5,31.61,81,39.02
			c-7.64,3.65-15.38,7.14-22.89,11.05c-7.2,3.75-13.7,8.47-20.16,13.35c-6.48,4.9-12.96,9.83-19.85,14.14
			C12.59,81,5.13,83.89,6,91.72c0.76,6.8,6.21,11.11,12.01,13.81c3.18,1.48,6.5,2.72,9.43,4.68c3.03,2.03,5.52,4.8,7.88,7.54
			c4.9,5.7,9.82,11.12,15.72,15.82c5.83,4.65,12.08,8.72,18.52,12.46c14.09,8.19,28.95,14.96,44.07,21.01
			c14.81,5.92,29.88,11.23,45.25,15.47c29.81,8.23,61.24,12.58,92.02,7.88c15.84-2.42,30.66-7.68,45.13-14.45
			c7.39-3.46,14.7-7.1,22.21-10.29c6.86-2.91,13.85-5.51,20.88-7.96c27.81-9.68,56.65-16.95,83.01-30.38
			c6.35-3.23,12.49-6.83,18.38-10.84c2.64-1.8,0.15-6.14-2.52-4.32c-23.91,16.29-51.69,24.94-78.98,33.7
			c-13.81,4.43-27.62,8.93-41.01,14.52c-14.54,6.07-28.34,13.94-43.28,19.07c-29,9.95-60.34,9.57-90.19,3.94
			c-30.5-5.75-60.45-16.3-88.58-29.31c-13.93-6.44-27.91-13.66-40.13-23.04c-5.82-4.46-10.88-9.6-15.6-15.19
			c-4.59-5.43-9.29-9.95-15.85-12.91c-5.25-2.37-13.46-5.28-13.47-12.35c0-3.34,3.06-4.8,5.59-6.24c3.47-1.98,6.83-4.15,10.11-6.42
			c6.46-4.46,12.61-9.34,18.93-13.99c6.36-4.67,13.01-8.62,20.11-12.06C80.78,44.54,96,37.36,111.18,30.11
			c7.49-3.58,14.97-7.17,22.47-10.73c6.99-3.32,14.1-6.5,21.67-8.26c8.15-1.89,16.59-1.84,24.89-1.2c7.96,0.62,15.86,1.75,23.7,3.28
			c15.71,3.06,31.08,7.65,46.18,12.9c14.95,5.19,29.71,10.95,44.41,16.8c14.54,5.78,28.36,12.45,40.55,22.39
			c5.88,4.8,11.56,9.85,17.63,14.42c6.05,4.56,12.41,8.71,18.96,12.53c12.91,7.53,26.52,13.75,40.27,19.55
			c6.79,2.86,13.63,5.62,20.47,8.37C435.36,121.35,436.66,116.52,433.71,115.33L433.71,115.33z"/>
	</g>
</g>
<rect x="127" y="70.33" class="st2" width="248" height="89.33"/>
<text transform="matrix(1 0 0 1 121.1981 110.1713)" class="st3 st4">Forside</text>
<g>
	<g>
		<path class="st1" d="M-362.33,10.17c3.22,0,3.22-5,0-5S-365.56,10.17-362.33,10.17L-362.33,10.17z"/>
	</g>
</g>
<g>
	<g>
		<path class="st1" d="M9.46,95.01c13.74-4.96,27.61-9.96,42.08-12.26c14.37-2.28,28.68-0.86,42.74,2.54
			c8.05,1.94,15.96,4.41,23.85,6.91c3.07,0.97,4.39-3.85,1.33-4.82c-14.27-4.52-28.7-8.9-43.67-10.35
			c-14.89-1.44-29.62,0.96-43.9,5.14c-8.02,2.35-15.9,5.18-23.76,8.02c-1.27,0.46-2.12,1.7-1.75,3.08
			C6.72,94.49,8.18,95.47,9.46,95.01L9.46,95.01z"/>
	</g>
</g>
<g>
	<g>
		<path class="st1" d="M286.34,101c9.79,2.03,19.58,4.06,29.37,6.09c9.56,1.98,19.09,4.08,28.88,4.44
			c9.47,0.34,18.92-0.01,28.38,0.77c9.13,0.75,18.19,2.18,27.12,4.24c10.2,2.35,20.2,5.54,29.89,9.5c1.25,0.51,2.75-0.55,3.08-1.75
			c0.39-1.43-0.49-2.56-1.75-3.08c-17.24-7.04-35.42-11.55-53.94-13.51c-9.38-0.99-18.73-1-28.15-1.09
			c-4.81-0.04-9.63-0.25-14.39-0.94c-4.74-0.69-9.43-1.68-14.12-2.65c-11.01-2.28-22.03-4.57-33.04-6.85
			c-1.32-0.27-2.7,0.39-3.08,1.75C284.26,99.17,285.02,100.73,286.34,101L286.34,101z"/>
	</g>
</g>
<g>
	<g>
		<path class="st1" d="M58.54,85.8c8.75-10.56,15.11-22.93,18.47-36.23c0.79-3.12-4.03-4.45-4.82-1.33
			c-3.15,12.43-9,24.13-17.19,34.02c-0.86,1.04-1.02,2.52,0,3.54C55.89,86.68,57.67,86.84,58.54,85.8L58.54,85.8z"/>
	</g>
</g>
<g>
	<g>
		<path class="st1" d="M54.49,85.4c-1.7,8.6,4.09,15.7,7.97,22.78c3.96,7.24,6.9,14.99,8.81,23.01c1.08,4.55,1.82,9.16,2.2,13.82
			c0.11,1.35,1.07,2.5,2.5,2.5c1.27,0,2.61-1.15,2.5-2.5c-0.67-8.29-2.33-16.48-5.06-24.33c-1.36-3.91-2.96-7.75-4.79-11.47
			c-1.79-3.64-3.93-7.06-5.95-10.58c-2.04-3.55-4.19-7.68-3.36-11.91c0.26-1.32-0.38-2.7-1.75-3.08
			C56.34,83.32,54.76,84.07,54.49,85.4L54.49,85.4z"/>
	</g>
</g>
<g>
	<g>
		<path class="st1" d="M84.51,82.33c0,21.97,4.96,43.81,14.3,63.69c2.61,5.56,5.58,10.95,8.87,16.13c1.72,2.71,6.05,0.2,4.32-2.52
			c-11.35-17.89-18.78-38.31-21.39-59.36c-0.74-5.95-1.1-11.94-1.1-17.94C89.51,79.12,84.51,79.11,84.51,82.33L84.51,82.33z"/>
	</g>
</g>
<g>
	<g>
		<path class="st1" d="M107.39,94.34c-0.51,5.47-0.84,10.96,0.02,16.42c0.9,5.64,3.58,10.29,6.87,14.86
			c6.44,8.96,11.38,18.76,15.48,28.98c2.34,5.84,4.46,11.77,6.58,17.69c0.45,1.27,1.7,2.12,3.08,1.75c1.23-0.34,2.2-1.8,1.75-3.08
			c-3.72-10.42-7.47-20.86-12.35-30.81c-2.4-4.88-5.07-9.63-8.14-14.13c-3.03-4.44-6.51-8.55-7.87-13.86
			c-1.49-5.8-0.96-11.94-0.41-17.83c0.12-1.35-1.24-2.5-2.5-2.5C108.44,91.84,107.52,92.99,107.39,94.34L107.39,94.34z"/>
	</g>
</g>
<g>
	<g>
		<path class="st1" d="M88.73,81.87c-1.98-2.3,0.31-6.46,1.43-8.64c2.1-4.12,4.22-8.24,6.33-12.36c4.29-8.39,8.59-16.78,12.88-25.17
			c1.46-2.86-2.85-5.39-4.32-2.52c-4.67,9.13-9.34,18.25-14.01,27.38c-2.24,4.37-4.76,8.7-6.63,13.24
			c-1.6,3.88-2.13,8.23,0.79,11.62c0.88,1.02,2.63,0.91,3.54,0C89.74,84.39,89.61,82.9,88.73,81.87L88.73,81.87z"/>
	</g>
</g>
<g>
	<g>
		<path class="st1" d="M118.49,86.63c-0.48-22.67,9.42-44.81,25.59-60.53c4.56-4.44,9.6-8.32,15.05-11.6
			c2.76-1.66,0.24-5.98-2.52-4.32c-20.44,12.28-35.65,33.06-41.01,56.32c-1.52,6.59-2.25,13.37-2.1,20.13
			C113.56,89.84,118.56,89.85,118.49,86.63L118.49,86.63z"/>
	</g>
</g>
<g>
	<g>
		<path class="st1" d="M147.48,65.45c7.25-7.15,12.92-15.4,17.56-24.42c1.09-2.12,2.28-4,4.21-5.45c2.14-1.6,4.52-2.93,6.78-4.35
			c4.92-3.09,9.83-6.18,14.75-9.27c5.48-3.44,10.96-6.89,16.43-10.33c2.72-1.71,0.21-6.04-2.52-4.32
			c-9.83,6.18-19.66,12.36-29.49,18.54c-4.53,2.85-9.88,5.38-12.93,9.95c-1.4,2.1-2.39,4.46-3.6,6.66c-1.18,2.15-2.45,4.25-3.81,6.3
			c-3.17,4.76-6.84,9.14-10.91,13.15C141.65,64.17,145.19,67.71,147.48,65.45L147.48,65.45z"/>
	</g>
</g>
<g>
	<g>
		<path class="st1" d="M171.95,67.45c15.79-15.9,31.84-32.06,51.17-43.67c5.33-3.2,10.88-6.04,16.65-8.35
			c1.25-0.5,2.13-1.67,1.75-3.08c-0.33-1.19-1.81-2.25-3.08-1.75c-21.58,8.63-39.61,23.58-56.18,39.56
			c-4.68,4.52-9.27,9.13-13.86,13.74C166.15,66.2,169.68,69.74,171.95,67.45L171.95,67.45z"/>
	</g>
</g>
<g>
	<g>
		<path class="st1" d="M221.94,70.44c15.69-8.77,31.2-17.87,46.51-27.31c4.36-2.69,8.71-5.41,13.04-8.15
			c2.71-1.72,0.21-6.05-2.52-4.32c-15.19,9.62-30.58,18.91-46.17,27.87c-4.44,2.55-8.9,5.08-13.38,7.58
			C216.61,67.69,219.12,72.01,221.94,70.44L221.94,70.44z"/>
	</g>
</g>
<g>
	<g>
		<path class="st1" d="M260.56,74.59c8.91-10.2,20.42-18.07,33.22-22.55c3.68-1.29,7.44-2.29,11.27-3.03
			c1.33-0.26,2.08-1.85,1.75-3.08c-0.38-1.39-1.75-2-3.08-1.75c-14.03,2.72-27.21,9.17-38.1,18.39c-3.08,2.6-5.94,5.44-8.59,8.48
			c-0.89,1.02-1,2.54,0,3.54C257.93,75.5,259.67,75.61,260.56,74.59L260.56,74.59z"/>
	</g>
</g>
<g>
	<g>
		<path class="st1" d="M296,98.93c2.56-6.3,6.69-11.93,11.78-16.41c5.62-4.96,12.38-7.83,19.38-10.3c4.42-1.56,8.86-3.08,13.11-5.06
			c1.22-0.57,1.53-2.33,0.9-3.42c-0.73-1.25-2.19-1.47-3.42-0.9c-7.63,3.56-15.93,5.44-23.46,9.27
			c-6.72,3.42-12.48,8.45-16.99,14.47c-2.54,3.39-4.53,7.1-6.12,11.02c-0.51,1.25,0.55,2.75,1.75,3.08
			C294.35,101.07,295.49,100.19,296,98.93L296,98.93z"/>
	</g>
</g>
<g>
	<g>
		<path class="st1" d="M327.9,108.97c7.19-12.18,19.35-20.96,33.14-24.03c3.14-0.7,1.81-5.52-1.33-4.82
			c-15.01,3.35-28.32,13.1-36.13,26.33C321.94,109.22,326.26,111.74,327.9,108.97L327.9,108.97z"/>
	</g>
</g>
<g>
	<g>
		<path class="st1" d="M330.56,110.39c1.59,15.7,7.7,30.54,17.62,42.81c0.85,1.05,2.65,0.88,3.54,0c1.04-1.04,0.85-2.48,0-3.54
			c-9.01-11.15-14.71-25.02-16.16-39.28c-0.14-1.34-1.05-2.5-2.5-2.5C331.81,107.89,330.42,109.04,330.56,110.39L330.56,110.39z"/>
	</g>
</g>
<g>
	<g>
		<path class="st1" d="M290.21,100.39c-2.14,8.31,0.1,16.64,3.63,24.23c3.66,7.85,8.51,15.16,12.95,22.58
			c2.67,4.45,5.33,8.89,8,13.34c1.65,2.76,5.98,0.25,4.32-2.52c-4.49-7.48-8.97-14.96-13.46-22.45c-4.08-6.8-8.42-13.7-10.41-21.46
			c-1.05-4.08-1.27-8.28-0.21-12.38C295.84,98.6,291.01,97.27,290.21,100.39L290.21,100.39z"/>
	</g>
</g>
<g>
	<g>
		<path class="st1" d="M255.86,117.78c3.01,18.83,13.46,36.41,28.32,48.33c4.25,3.41,8.8,6.39,13.68,8.82
			c2.87,1.43,5.41-2.88,2.52-4.32c-16.13-8.05-29.06-22.25-35.61-39.07c-1.9-4.87-3.27-9.93-4.09-15.09
			c-0.21-1.33-1.88-2.08-3.08-1.75C256.18,115.09,255.64,116.44,255.86,117.78L255.86,117.78z"/>
	</g>
</g>
<g>
	<g>
		<path class="st1" d="M225.31,120.23c4.92,21.18,19.68,38.07,35.28,52.44c4.5,4.15,9.14,8.15,13.79,12.12
			c1.03,0.88,2.53,1.01,3.54,0c0.9-0.9,1.03-2.65,0-3.54c-15.74-13.45-32.12-27.59-41.82-46.24c-2.65-5.11-4.66-10.5-5.97-16.11
			C229.4,115.77,224.58,117.09,225.31,120.23L225.31,120.23z"/>
	</g>
</g>
<g>
	<g>
		<path class="st1" d="M190.55,117.87c2.59,11.6,6.33,22.81,13.07,32.71c6.44,9.45,14.58,17.52,22.64,25.57
			c5.17,5.16,10.33,10.32,15.5,15.49c2.28,2.28,5.82-1.26,3.54-3.54c-8.53-8.53-17.25-16.91-25.52-25.69
			c-7.52-7.99-14.46-16.68-18.72-26.89c-2.54-6.1-4.24-12.53-5.68-18.97C194.67,113.4,189.84,114.73,190.55,117.87L190.55,117.87z"
			/>
	</g>
</g>
<g>
	<g>
		<path class="st1" d="M154.95,121.02c2.15,23.24,12.53,45.42,28.86,62.09c4.56,4.65,9.58,8.83,14.95,12.51
			c1.11,0.76,2.77,0.21,3.42-0.9c0.72-1.24,0.22-2.66-0.9-3.42c-18.04-12.35-31.48-31.14-37.75-52.06
			c-1.78-5.94-3.01-12.04-3.58-18.22c-0.12-1.34-1.06-2.5-2.5-2.5C156.2,118.52,154.83,119.67,154.95,121.02L154.95,121.02z"/>
	</g>
</g>
</svg>
