<?xml version="1.0" encoding="utf-8"?>
<!-- Generator: Adobe Illustrator 26.0.1, SVG Export Plug-In . SVG Version: 6.00 Build 0)  -->
<svg version="1.1" id="Lag_1" xmlns="http://www.w3.org/2000/svg" xmlns:xlink="http://www.w3.org/1999/xlink" x="0px" y="0px"
	 viewBox="0 0 447 208" style="enable-background:new 0 0 447 208;" xml:space="preserve">
<style type="text/css">
	.st0{fill:#EE7D12;}
	.st1{fill:#1D1D1B;}
	.st2{fill:none;}
	.st3{font-family:'ArialNarrow-Bold';}
	.st4{font-size:49.9954px;}
</style>
<g>
	<path class="st0" d="M14.61,82.73c28.7,11.55,57.84,23.34,82.11,42.52c7.55,5.96,14.58,12.6,22.49,18.08
		c12.14,8.41,26.04,13.85,39.8,19.23c34.59,13.51,69.77,27.16,106.77,30.37c8.56,0.74,17.26,0.91,25.68-0.81
		c9.21-1.89,17.79-5.97,26.28-10.03c20.76-9.92,41.52-19.83,62.27-29.75c4.58-2.19,9.17-4.38,13.54-6.98
		c4.75-2.84,9.21-6.14,13.63-9.47c8.3-6.26,16.54-12.65,25.59-17.77c1.9-1.07,3.9-2.15,5.17-3.92c3.13-4.37,0.25-10.75-4.07-13.96
		s-9.76-4.54-14.31-7.41c-5.56-3.51-9.43-9.06-13.81-13.96c-8.31-9.28-18.76-16.4-29.55-22.62c-16.73-9.65-34.51-17.35-52.58-24.17
		c-49.34-18.62-104.78-30.62-154.25-12.4c-12.24,4.51-23.75,10.75-35.69,16.02C92.37,53.94,45.66,60.68,8.41,86.19"/>
	<g>
		<path class="st1" d="M13.95,85.14c28.51,11.47,57.71,23.21,81.92,42.6c6.15,4.93,12,10.23,18.29,14.99
			c6.31,4.78,13.14,8.75,20.27,12.18c14.32,6.89,29.44,12.31,44.3,17.91c30.34,11.45,62.24,22.06,94.95,23.07
			c8.28,0.26,16.56-0.51,24.5-2.95c7.61-2.34,14.81-5.85,21.97-9.27c15.5-7.41,31.01-14.81,46.51-22.22
			c7.64-3.65,15.38-7.14,22.89-11.05c7.2-3.75,13.7-8.47,20.16-13.35c6.48-4.9,12.96-9.83,19.85-14.14
			c5.51-3.44,12.97-6.33,12.1-14.16c-0.76-6.8-6.21-11.11-12.01-13.81c-3.18-1.48-6.5-2.72-9.43-4.68c-3.03-2.03-5.52-4.8-7.88-7.54
			c-4.9-5.7-9.82-11.12-15.72-15.82c-5.83-4.65-12.08-8.72-18.52-12.46c-14.09-8.19-28.95-14.96-44.07-21.01
			c-14.81-5.92-29.88-11.23-45.25-15.47c-29.81-8.23-61.24-12.58-92.02-7.88c-15.84,2.42-30.66,7.68-45.13,14.45
			c-7.39,3.46-14.7,7.1-22.21,10.29c-6.86,2.91-13.85,5.51-20.88,7.96c-27.81,9.68-56.65,16.95-83.01,30.38
			C19.18,76.39,13.04,79.99,7.15,84C4.5,85.83,7,90.17,9.67,88.35c23.91-16.29,51.69-24.94,78.98-33.7
			c13.81-4.43,27.62-8.93,41.01-14.52c14.54-6.07,28.34-13.94,43.28-19.07c29-9.95,60.34-9.57,90.19-3.94
			c30.5,5.75,60.45,16.3,88.58,29.31c13.93,6.44,27.91,13.66,40.13,23.04c5.82,4.46,10.88,9.6,15.6,15.19
			c4.59,5.43,9.29,9.95,15.85,12.91c5.25,2.37,13.46,5.28,13.47,12.35c0,3.34-3.06,4.8-5.59,6.24c-3.47,1.98-6.83,4.15-10.11,6.42
			c-6.46,4.46-12.61,9.34-18.93,13.99c-6.36,4.67-13.01,8.62-20.11,12.06c-15.14,7.33-30.36,14.51-45.54,21.76
			c-7.49,3.58-14.97,7.17-22.47,10.73c-6.99,3.32-14.1,6.5-21.67,8.26c-8.15,1.89-16.59,1.84-24.89,1.2
			c-7.96-0.62-15.86-1.75-23.7-3.28c-15.71-3.06-31.08-7.65-46.18-12.9c-14.95-5.19-29.71-10.95-44.41-16.8
			c-14.54-5.78-28.36-12.45-40.55-22.39c-5.88-4.8-11.56-9.85-17.63-14.42c-6.05-4.56-12.41-8.71-18.96-12.53
			c-12.91-7.53-26.52-13.75-40.27-19.55c-6.79-2.86-13.63-5.62-20.47-8.37C12.29,79.12,11,83.95,13.95,85.14L13.95,85.14z"/>
	</g>
</g>
<rect x="166.64" y="87.78" transform="matrix(0.9998 -0.0175 0.0175 0.9998 -2.2733 5.1066)" class="st2" width="247.98" height="89.33"/>
<text transform="matrix(0.9998 -0.0175 0.0175 0.9998 166.5114 125.4652)" class="st3 st4">Forside</text>
<g>
	<g>
		<path class="st1" d="M-362.33,10.17c3.22,0,3.22-5,0-5S-365.56,10.17-362.33,10.17L-362.33,10.17z"/>
	</g>
</g>
<g>
	<g>
		<path class="st1" d="M438.2,105.45c-13.74,4.96-27.61,9.96-42.08,12.26c-14.37,2.28-28.68,0.86-42.74-2.54
			c-8.05-1.94-15.96-4.41-23.85-6.91c-3.07-0.97-4.39,3.85-1.33,4.82c14.27,4.52,28.7,8.9,43.67,10.35
			c14.89,1.44,29.62-0.96,43.9-5.14c8.02-2.35,15.9-5.18,23.76-8.02c1.27-0.46,2.12-1.7,1.75-3.08
			C440.93,105.97,439.47,104.99,438.2,105.45L438.2,105.45z"/>
	</g>
</g>
<g>
	<g>
		<path class="st1" d="M161.31,99.47c-9.79-2.03-19.58-4.06-29.37-6.09c-9.56-1.98-19.09-4.08-28.88-4.44
			c-9.47-0.34-18.92,0.01-28.38-0.77c-9.13-0.75-18.19-2.18-27.12-4.24c-10.2-2.35-20.2-5.54-29.89-9.5
			c-1.25-0.51-2.75,0.55-3.08,1.75c-0.39,1.43,0.49,2.56,1.75,3.08c17.24,7.04,35.42,11.55,53.94,13.51
			c9.38,0.99,18.73,1,28.15,1.09c4.81,0.04,9.63,0.25,14.39,0.94c4.74,0.69,9.43,1.68,14.12,2.65c11.01,2.28,22.03,4.57,33.04,6.85
			c1.32,0.27,2.7-0.39,3.08-1.75C163.4,101.3,162.64,99.74,161.31,99.47L161.31,99.47z"/>
	</g>
</g>
<g>
	<g>
		<path class="st1" d="M389.12,114.67c-8.75,10.56-15.11,22.93-18.47,36.23c-0.79,3.12,4.03,4.45,4.82,1.33
			c3.14-12.44,8.99-24.14,17.18-34.03c0.86-1.04,1.02-2.52,0-3.54C391.76,113.78,389.98,113.62,389.12,114.67L389.12,114.67z"/>
	</g>
</g>
<g>
	<g>
		<path class="st1" d="M393.16,115.06c1.7-8.6-4.09-15.7-7.97-22.78c-3.96-7.24-6.9-14.99-8.81-23.01
			c-1.08-4.55-1.82-9.16-2.2-13.82c-0.11-1.35-1.07-2.5-2.5-2.5c-1.27,0-2.61,1.15-2.5,2.5c0.67,8.29,2.33,16.48,5.06,24.33
			c1.36,3.91,2.96,7.75,4.79,11.47c1.79,3.64,3.93,7.06,5.95,10.58c2.04,3.55,4.19,7.68,3.36,11.91c-0.26,1.32,0.38,2.7,1.75,3.08
			C391.31,117.15,392.9,116.4,393.16,115.06L393.16,115.06z"/>
	</g>
</g>
<g>
	<g>
		<path class="st1" d="M363.15,118.13c0-21.97-4.96-43.81-14.3-63.69c-2.61-5.56-5.58-10.95-8.87-16.13
			c-1.72-2.71-6.05-0.2-4.32,2.52c11.35,17.89,18.78,38.31,21.39,59.36c0.74,5.95,1.1,11.94,1.1,17.94
			C358.15,121.35,363.15,121.36,363.15,118.13L363.15,118.13z"/>
	</g>
</g>
<g>
	<g>
		<path class="st1" d="M340.26,106.13c0.51-5.47,0.84-10.96-0.02-16.42c-0.9-5.64-3.58-10.29-6.87-14.86
			c-6.44-8.96-11.38-18.76-15.48-28.98c-2.34-5.84-4.46-11.77-6.58-17.69c-0.45-1.27-1.7-2.12-3.08-1.75
			c-1.23,0.34-2.2,1.8-1.75,3.08c3.72,10.42,7.47,20.86,12.35,30.81c2.4,4.88,5.07,9.63,8.14,14.13c3.03,4.44,6.51,8.55,7.87,13.86
			c1.49,5.8,0.96,11.94,0.41,17.83c-0.12,1.35,1.24,2.5,2.5,2.5C339.22,108.63,340.13,107.48,340.26,106.13L340.26,106.13z"/>
	</g>
</g>
<g>
	<g>
		<path class="st1" d="M358.93,118.59c1.98,2.3-0.31,6.46-1.43,8.64c-2.1,4.12-4.22,8.24-6.33,12.36
			c-4.29,8.39-8.59,16.78-12.88,25.17c-1.46,2.86,2.85,5.39,4.32,2.52c4.67-9.13,9.34-18.25,14.01-27.38
			c2.24-4.37,4.76-8.7,6.63-13.24c1.6-3.88,2.13-8.23-0.79-11.62c-0.88-1.02-2.63-0.91-3.54,0
			C357.91,116.07,358.04,117.57,358.93,118.59L358.93,118.59z"/>
	</g>
</g>
<g>
	<g>
		<path class="st1" d="M329.17,113.84c0.48,22.67-9.42,44.81-25.59,60.53c-4.56,4.44-9.6,8.32-15.05,11.6
			c-2.76,1.66-0.24,5.98,2.52,4.32c20.44-12.28,35.65-33.06,41.01-56.32c1.52-6.59,2.25-13.37,2.1-20.13
			C334.1,110.62,329.1,110.61,329.17,113.84L329.17,113.84z"/>
	</g>
</g>
<g>
	<g>
		<path class="st1" d="M300.17,135.02c-7.25,7.15-12.92,15.4-17.56,24.42c-1.09,2.12-2.28,4-4.21,5.45
			c-2.14,1.6-4.52,2.93-6.78,4.35c-4.92,3.09-9.83,6.18-14.75,9.27c-5.48,3.44-10.96,6.89-16.43,10.33
			c-2.72,1.71-0.21,6.04,2.52,4.32c9.83-6.18,19.66-12.36,29.49-18.54c4.53-2.85,9.88-5.38,12.93-9.95c1.4-2.1,2.39-4.46,3.6-6.66
			c1.18-2.15,2.45-4.25,3.81-6.3c3.17-4.76,6.84-9.14,10.91-13.15C306,136.29,302.47,132.76,300.17,135.02L300.17,135.02z"/>
	</g>
</g>
<g>
	<g>
		<path class="st1" d="M275.7,133.02c-15.79,15.9-31.84,32.06-51.17,43.67c-5.33,3.2-10.88,6.04-16.65,8.35
			c-1.25,0.5-2.13,1.67-1.75,3.08c0.33,1.19,1.81,2.25,3.08,1.75c21.58-8.63,39.61-23.58,56.18-39.56
			c4.68-4.52,9.27-9.13,13.86-13.74C281.5,134.27,277.97,130.73,275.7,133.02L275.7,133.02z"/>
	</g>
</g>
<g>
	<g>
		<path class="st1" d="M225.71,130.03c-15.69,8.77-31.2,17.87-46.51,27.31c-4.36,2.69-8.71,5.41-13.04,8.15
			c-2.71,1.72-0.21,6.05,2.52,4.32c15.19-9.62,30.58-18.91,46.17-27.87c4.44-2.55,8.9-5.08,13.38-7.58
			C231.05,132.77,228.53,128.45,225.71,130.03L225.71,130.03z"/>
	</g>
</g>
<g>
	<g>
		<path class="st1" d="M187.09,125.88c-8.91,10.2-20.42,18.07-33.22,22.55c-3.68,1.29-7.44,2.29-11.27,3.03
			c-1.33,0.26-2.08,1.85-1.75,3.08c0.38,1.39,1.75,2,3.08,1.75c14.03-2.72,27.21-9.17,38.1-18.39c3.08-2.6,5.94-5.44,8.59-8.48
			c0.89-1.02,1-2.54,0-3.54C189.72,124.97,187.98,124.86,187.09,125.88L187.09,125.88z"/>
	</g>
</g>
<g>
	<g>
		<path class="st1" d="M151.66,101.53c-2.56,6.3-6.69,11.93-11.78,16.41c-5.62,4.96-12.38,7.83-19.38,10.3
			c-4.42,1.56-8.86,3.08-13.11,5.06c-1.22,0.57-1.53,2.33-0.9,3.42c0.73,1.25,2.19,1.47,3.42,0.9c7.63-3.56,15.93-5.44,23.46-9.27
			c6.72-3.42,12.48-8.45,16.99-14.47c2.54-3.39,4.53-7.1,6.12-11.02c0.51-1.25-0.55-2.75-1.75-3.08
			C153.3,99.39,152.17,100.28,151.66,101.53L151.66,101.53z"/>
	</g>
</g>
<g>
	<g>
		<path class="st1" d="M119.76,91.5c-7.19,12.18-19.35,20.96-33.14,24.03c-3.14,0.7-1.81,5.52,1.33,4.82
			c15.01-3.35,28.32-13.1,36.13-26.33C125.71,91.24,121.39,88.72,119.76,91.5L119.76,91.5z"/>
	</g>
</g>
<g>
	<g>
		<path class="st1" d="M117.09,90.07c-1.59-15.7-7.7-30.54-17.62-42.81c-0.85-1.05-2.65-0.88-3.54,0c-1.04,1.04-0.85,2.48,0,3.54
			c9.01,11.15,14.71,25.02,16.16,39.28c0.14,1.34,1.05,2.5,2.5,2.5C115.84,92.57,117.23,91.43,117.09,90.07L117.09,90.07z"/>
	</g>
</g>
<g>
	<g>
		<path class="st1" d="M157.44,100.08c2.14-8.31-0.1-16.64-3.63-24.23c-3.66-7.85-8.51-15.16-12.95-22.58
			c-2.67-4.45-5.33-8.89-8-13.34c-1.65-2.76-5.98-0.25-4.32,2.52c4.49,7.48,8.97,14.97,13.46,22.45c4.08,6.8,8.42,13.7,10.41,21.46
			c1.05,4.08,1.27,8.28,0.21,12.38C151.82,101.86,156.64,103.19,157.44,100.08L157.44,100.08z"/>
	</g>
</g>
<g>
	<g>
		<path class="st1" d="M191.8,82.69c-3.01-18.83-13.46-36.41-28.32-48.33c-4.25-3.41-8.8-6.39-13.68-8.82
			c-2.87-1.43-5.41,2.88-2.52,4.32c16.13,8.05,29.06,22.25,35.61,39.07c1.9,4.87,3.27,9.93,4.09,15.09
			c0.21,1.33,1.88,2.08,3.08,1.75C191.47,85.37,192.01,84.03,191.8,82.69L191.8,82.69z"/>
	</g>
</g>
<g>
	<g>
		<path class="st1" d="M222.34,80.24c-4.92-21.18-19.68-38.07-35.28-52.44c-4.5-4.15-9.14-8.15-13.79-12.12
			c-1.03-0.88-2.53-1.01-3.54,0c-0.9,0.9-1.03,2.65,0,3.54c15.74,13.45,32.12,27.59,41.82,46.24c2.65,5.11,4.66,10.5,5.97,16.11
			C218.25,84.7,223.07,83.37,222.34,80.24L222.34,80.24z"/>
	</g>
</g>
<g>
	<g>
		<path class="st1" d="M257.11,82.59c-2.59-11.6-6.33-22.81-13.07-32.71c-6.44-9.45-14.58-17.52-22.64-25.57
			c-5.17-5.16-10.33-10.32-15.5-15.49c-2.28-2.28-5.82,1.26-3.54,3.54c8.53,8.53,17.25,16.91,25.52,25.69
			c7.52,7.99,14.46,16.68,18.72,26.89c2.54,6.1,4.24,12.53,5.68,18.97C252.99,87.06,257.81,85.73,257.11,82.59L257.11,82.59z"/>
	</g>
</g>
<g>
	<g>
		<path class="st1" d="M292.7,79.45c-2.15-23.24-12.53-45.42-28.86-62.09c-4.56-4.65-9.58-8.83-14.95-12.51
			c-1.11-0.76-2.77-0.21-3.42,0.9c-0.72,1.24-0.22,2.66,0.9,3.42c18.04,12.35,31.48,31.14,37.75,52.06
			c1.78,5.94,3.01,12.04,3.58,18.22c0.12,1.34,1.06,2.5,2.5,2.5C291.46,81.95,292.83,80.8,292.7,79.45L292.7,79.45z"/>
	</g>
</g>
</svg>
